<svg width="1000" height="1000" viewBox="0 0 1000 1000" fill="none" xmlns="http://www.w3.org/2000/svg">
<path fill-rule="evenodd" clip-rule="evenodd" d="M666.16 319.463C666.16 327.133 672.345 333.35 679.975 333.35H831.937V666.65H679.975C672.345 666.65 666.16 672.868 666.16 680.538V833.3H334.605V680.538C334.605 672.868 328.42 666.65 320.79 666.65H168.827V333.35H320.79C328.42 333.35 334.605 327.133 334.605 319.463V166.7H666.16V319.463ZM500.382 250.025C500.382 388.083 389.051 500 251.716 500C389.051 500 500.382 611.918 500.382 749.975C500.382 611.918 611.714 500 749.048 500C611.714 500 500.382 388.083 500.382 250.025Z" fill="black"/>
</svg>
