<svg width="1920" height="790" viewBox="0 0 1920 790" fill="none" xmlns="http://www.w3.org/2000/svg">
<path fill-rule="evenodd" clip-rule="evenodd" d="M463.255 323.762C463.255 326.793 465.706 329.25 468.729 329.25H528.945V460.95H468.729C465.706 460.95 463.255 463.407 463.255 466.437V526.8H331.874V466.437C331.874 463.407 329.423 460.95 326.4 460.95H266.184V329.25H326.4C329.423 329.25 331.874 326.793 331.874 323.762V263.4H463.255V323.762ZM397.564 296.325C397.564 350.877 353.449 395.1 299.029 395.1C353.449 395.1 397.564 439.323 397.564 493.875C397.564 439.323 441.68 395.1 496.1 395.1C441.68 395.1 397.564 350.877 397.564 296.325Z" fill="white"/>
<path d="M595.875 460.444V329.545H620.277V350.489H621.672C624.065 343.454 628.331 337.899 634.352 333.822C640.372 329.705 647.23 327.666 654.846 327.666C656.401 327.666 658.235 327.706 660.388 327.826C662.541 327.946 664.256 328.066 665.572 328.226V352.567C664.575 352.247 662.741 351.928 660.149 351.648C657.517 351.328 654.926 351.168 652.254 351.168C646.273 351.168 640.891 352.447 636.186 354.965C631.481 357.483 627.773 360.961 625.101 365.397C622.43 369.834 621.074 374.91 621.074 380.665V460.404H595.875V460.444Z" fill="white"/>
<path d="M783.832 393.576C783.832 381.785 782.198 371.713 778.968 363.359C775.738 355.006 771.353 348.211 765.81 342.975C760.268 337.739 754.048 333.902 747.11 331.504C740.172 329.066 732.995 327.867 725.619 327.867C713.458 327.867 702.892 330.745 693.921 336.46C684.95 342.176 677.972 350.17 673.028 360.402C668.084 370.634 665.612 382.465 665.612 395.894C665.612 409.324 668.123 421.195 673.147 431.307C678.171 441.419 685.348 449.253 694.718 454.769C704.088 460.284 715.133 463.082 727.892 463.082C737.381 463.082 745.874 461.603 753.29 458.686C760.707 455.768 766.887 451.651 771.791 446.335C776.695 441.019 780.124 434.864 782.078 427.829L757.995 423.273C756.52 427.43 754.327 430.867 751.456 433.705C748.585 436.503 745.156 438.621 741.249 440.02C737.302 441.419 732.956 442.138 728.091 442.138C720.675 442.138 714.216 440.5 708.634 437.222C703.051 433.945 698.705 429.188 695.595 422.953C692.804 417.318 691.329 410.523 691.05 402.689H783.793V393.536L783.832 393.576ZM695.037 368.156C697.749 362.36 701.696 357.724 706.879 354.207C712.063 350.689 718.323 348.931 725.619 348.931C732.916 348.931 739.056 350.649 744 354.127C748.944 357.604 752.652 362.44 755.164 368.595C756.999 373.072 758.115 378.108 758.593 383.584H691.09C691.489 378.068 692.764 372.912 694.997 368.116L695.037 368.156Z" fill="white"/>
<path d="M854.727 463.122C842.167 463.122 831.361 460.244 822.271 454.449C813.18 448.653 806.162 440.699 801.258 430.547C796.354 420.395 793.882 408.764 793.882 395.654C793.882 382.545 796.394 370.554 801.418 360.362C806.441 350.17 813.499 342.216 822.55 336.46C831.601 330.705 842.286 327.867 854.487 327.867C864.455 327.867 873.307 329.666 881.082 333.303C888.817 336.94 895.117 342.056 899.902 348.691C904.686 355.326 907.517 363.04 908.355 371.873H883.594C882.717 367.716 881.082 363.959 878.61 360.522C876.138 357.084 872.948 354.366 868.961 352.328C864.974 350.29 860.269 349.29 854.846 349.29C847.749 349.29 841.569 351.129 836.346 354.846C831.122 358.563 826.976 363.839 824.025 370.714C821.074 377.588 819.599 385.702 819.599 395.055C819.599 404.408 821.035 412.721 823.905 419.756C826.776 426.79 830.883 432.186 836.226 435.983C841.569 439.78 847.789 441.659 854.846 441.659C861.904 441.659 868.403 439.62 873.586 435.583C878.77 431.507 882.079 425.991 883.554 418.956H908.315C907.438 427.47 904.726 435.024 900.141 441.659C895.556 448.294 889.375 453.53 881.68 457.367C873.985 461.204 864.974 463.122 854.687 463.122H854.727Z" fill="white"/>
<path d="M979.243 463.122C967.002 463.122 956.316 460.324 947.186 454.689C938.015 449.053 930.958 441.179 925.934 431.027C920.91 420.875 918.398 409.084 918.398 395.654C918.398 382.225 920.91 370.194 925.934 360.002C930.958 349.81 938.055 341.896 947.186 336.3C956.316 330.665 967.042 327.867 979.243 327.867C991.444 327.867 1002.25 330.665 1011.38 336.3C1020.51 341.936 1027.57 349.81 1032.63 360.002C1037.7 370.194 1040.21 382.065 1040.21 395.654C1040.21 409.244 1037.7 420.875 1032.63 431.027C1027.57 441.179 1020.47 449.053 1011.38 454.689C1002.29 460.324 991.563 463.122 979.243 463.122ZM979.243 441.699C987.257 441.699 993.876 439.58 999.099 435.384C1004.32 431.187 1008.19 425.551 1010.74 418.597C1013.29 411.642 1014.53 403.968 1014.53 395.694C1014.53 387.421 1013.25 379.547 1010.74 372.512C1008.23 365.478 1004.32 359.882 999.099 355.645C993.876 351.409 987.257 349.33 979.243 349.33C971.229 349.33 964.729 351.449 959.546 355.645C954.363 359.842 950.495 365.478 947.903 372.512C945.312 379.547 944.036 387.261 944.036 395.694C944.036 404.128 945.312 411.602 947.903 418.597C950.495 425.591 954.363 431.187 959.546 435.384C964.729 439.58 971.269 441.699 979.243 441.699Z" fill="white"/>
<path d="M1162.06 329.544L1114.85 460.443H1087.5L1040.17 329.544H1067.4L1100.58 430.466H1101.97L1134.91 329.544H1162.06Z" fill="white"/>
<path d="M1177.41 460.444V329.545H1201.81V350.489H1203.2C1205.63 343.454 1209.86 337.899 1215.88 333.822C1221.9 329.745 1228.76 327.666 1236.38 327.666C1237.93 327.666 1239.77 327.706 1241.92 327.826C1244.07 327.946 1245.79 328.066 1247.1 328.226V352.567C1246.1 352.247 1244.27 351.928 1241.68 351.648C1239.09 351.368 1236.46 351.168 1233.78 351.168C1227.8 351.168 1222.42 352.447 1217.72 354.965C1213.01 357.483 1209.3 360.961 1206.63 365.397C1203.96 369.834 1202.6 374.91 1202.6 380.665V460.404H1177.37L1177.41 460.444Z" fill="white"/>
<path d="M1288.82 509.405C1284.99 509.485 1281.56 509.245 1278.49 508.645C1275.42 508.046 1273.07 507.366 1271.43 506.607L1277.61 485.863L1279.37 486.342C1285.83 487.981 1291.29 487.861 1295.79 486.063C1300.26 484.224 1304.05 479.188 1307.08 470.914L1310.23 462.241L1262.58 329.584H1289.81L1322.75 431.225H1324.14L1357.2 329.584H1384.43L1330.68 477.829C1328.21 484.704 1325.02 490.499 1321.23 495.216C1317.4 499.932 1312.86 503.489 1307.52 505.887C1302.17 508.285 1295.95 509.445 1288.9 509.445L1288.82 509.405Z" fill="white"/>
<path d="M1391.44 462.082C1386.7 462.082 1382.67 460.443 1379.36 457.166C1376.05 453.888 1374.38 449.851 1374.38 445.095C1374.38 440.339 1376.05 436.302 1379.36 433.024C1382.67 429.747 1386.7 428.108 1391.44 428.108C1396.19 428.108 1400.21 429.747 1403.52 433.024C1406.83 436.302 1408.51 440.339 1408.51 445.095C1408.51 449.851 1406.83 453.888 1403.52 457.166C1400.21 460.443 1396.19 462.082 1391.44 462.082Z" fill="white"/>
<path d="M1472.5 463.241C1464.25 463.241 1456.75 461.682 1450.1 458.605C1443.44 455.527 1438.09 451.011 1434.23 445.095C1430.36 439.18 1428.41 431.946 1428.41 423.432C1428.41 415.998 1429.84 409.963 1432.67 405.206C1435.5 400.45 1439.33 396.733 1444.19 393.895C1449.06 391.057 1454.4 388.979 1460.3 387.58C1466.2 386.181 1472.3 385.102 1478.52 384.302C1486.38 383.463 1492.72 382.704 1497.58 382.064C1502.45 381.425 1505.92 380.425 1508.15 379.067C1510.38 377.708 1511.46 375.509 1511.46 372.432V371.832C1511.46 364.398 1509.39 358.682 1505.2 354.605C1501.01 350.529 1494.87 348.53 1486.7 348.53C1478.52 348.53 1471.51 350.369 1466.56 354.086C1461.62 357.803 1458.23 362 1456.36 366.676L1432.39 361.16C1435.26 353.207 1439.45 346.772 1444.95 341.895C1450.45 337.019 1456.75 333.462 1463.89 331.184C1471.03 328.905 1478.48 327.786 1486.26 327.786C1491.48 327.786 1497.03 328.386 1502.85 329.585C1508.67 330.784 1514.21 333.022 1519.39 336.26C1524.58 339.497 1528.8 344.134 1532.07 350.129C1535.34 356.124 1536.98 363.918 1536.98 373.431V460.324H1512.1V442.417H1511.18C1509.62 445.615 1507.19 448.812 1503.88 452.01C1500.57 455.208 1496.35 457.845 1491.2 459.964C1486.06 462.082 1479.88 463.121 1472.62 463.121L1472.5 463.241ZM1478.01 442.897C1485.1 442.897 1491.12 441.498 1496.11 438.74C1501.09 435.982 1504.92 432.305 1507.55 427.789C1510.18 423.272 1511.54 418.476 1511.54 413.4V396.413C1510.62 397.252 1508.87 398.092 1506.28 398.891C1503.68 399.691 1500.77 400.33 1497.5 400.89C1494.23 401.449 1491.04 401.929 1487.93 402.368C1484.82 402.808 1482.19 403.128 1480.12 403.368C1475.22 404.087 1470.75 405.126 1466.68 406.605C1462.62 408.084 1459.39 410.162 1456.91 412.92C1454.44 415.678 1453.25 419.355 1453.25 423.872C1453.25 430.187 1455.6 434.943 1460.26 438.141C1464.93 441.338 1470.87 442.937 1478.01 442.937V442.897Z" fill="white"/>
<path d="M1569.91 309.401C1565.49 309.401 1561.7 307.922 1558.59 304.964C1555.48 302.006 1553.92 298.449 1553.92 294.292C1553.92 290.136 1555.48 286.498 1558.59 283.501C1561.7 280.503 1565.49 279.064 1569.91 279.064C1574.34 279.064 1578.05 280.543 1581.2 283.501C1584.35 286.458 1585.94 290.056 1585.94 294.292C1585.94 298.529 1584.35 301.966 1581.2 304.964C1578.05 307.962 1574.3 309.401 1569.91 309.401ZM1557.19 460.444V329.545H1582.43V460.444H1557.19Z" fill="white"/>
</svg>
