<svg width="370" height="387" viewBox="0 0 370 387" fill="none" xmlns="http://www.w3.org/2000/svg">
<rect x="15" y="15" width="340" height="357" fill="white" stroke="black" stroke-width="30"/>
<path d="M76.5328 228V62.4056H144.937C157.336 62.4056 168.036 64.6426 177.038 69.1167C186.094 73.5369 193.074 79.8976 197.979 88.1989C202.885 96.4462 205.337 106.23 205.337 117.55C205.337 129.031 202.831 138.788 197.818 146.82C192.805 154.798 185.689 160.889 176.472 165.094C167.254 169.244 156.338 171.319 143.725 171.319H100.466V139.785H136.286C142.323 139.785 147.363 139.004 151.406 137.441C155.503 135.823 158.602 133.398 160.705 130.163C162.807 126.875 163.858 122.671 163.858 117.55C163.858 112.429 162.807 108.197 160.705 104.855C158.602 101.459 155.503 98.9259 151.406 97.2548C147.309 95.5299 142.269 94.6674 136.286 94.6674H116.557V228H76.5328ZM169.76 152.318L210.997 228H167.335L126.906 152.318H169.76Z" fill="black"/>
<path d="M176.042 167.406L206.282 219.72H207.576L238.14 167.406H282.934L232.965 250.203L284.552 333H238.625L207.576 280.12H206.282L175.233 333H129.63L180.974 250.203L130.924 167.406H176.042Z" fill="black"/>
<path d="M231.862 141H218.64L235.814 90.1006H252.192L269.366 141H256.144L244.189 102.925H243.792L231.862 141ZM230.098 120.968H257.734V130.313H230.098V120.968ZM287.148 90.1006V141H274.846V90.1006H287.148Z" fill="#33B6B0"/>
</svg>
